<svg width="128" height="128" viewBox="0 0 128 128" fill="none" xmlns="http://www.w3.org/2000/svg" role="img" aria-labelledby="title desc">
  <title id="title">Little Brush Games logo</title>
  <desc id="desc">A warm gold brush mark with a tiny mole nose on a dark tile.</desc>
  <rect width="128" height="128" rx="30" fill="#0A0A0F"/>
  <path d="M29 82C43 51 65 32 99 25C86 42 78 58 76 74C74 88 64 101 48 102C38 103 31 96 29 82Z" fill="url(#paint0_linear)"/>
  <path d="M40 82C52 61 68 47 91 40C79 53 72 66 70 78C68 88 60 95 49 95C43 95 39 90 40 82Z" fill="#1B1020" fill-opacity="0.22"/>
  <circle cx="83" cy="52" r="4" fill="#0A0A0F"/>
  <path d="M35 91C27 94 21 99 18 106C27 103 36 101 47 102" stroke="#FFE7A8" stroke-width="7" stroke-linecap="round"/>
  <path d="M29 36C42 24 59 18 80 18" stroke="#FFCE6F" stroke-width="8" stroke-linecap="round"/>
  <defs><linearGradient id="paint0_linear" x1="31" y1="96" x2="93" y2="23" gradientUnits="userSpaceOnUse"><stop stop-color="#FFB84D"/><stop offset="0.55" stop-color="#FFE7A8"/><stop offset="1" stop-color="#FF6B6B"/></linearGradient></defs>
</svg>